<svg width="64" height="64" viewBox="0 0 64 64" fill="none" xmlns="http://www.w3.org/2000/svg">
<path d="M40.3519 20.3897C41.0839 21.1217 42.2699 21.1237 43.0019 20.3897L45.6099 17.7817C46.3409 17.0497 46.3389 15.8637 45.6099 15.1307L39.0269 8.54973C38.2969 7.81773 37.1109 7.81773 36.3789 8.54973L33.7699 11.1577C33.0399 11.8897 33.0399 13.0757 33.7699 13.8057L40.3519 20.3897Z" fill="url(#paint0_linear_1_662)"/>
<path d="M24.766 36.2677C25.497 36.9967 26.683 36.9967 27.414 36.2677L30.023 33.6577C30.755 32.9277 30.755 31.7407 30.023 31.0087L23.44 24.4257C22.709 23.6957 21.523 23.6937 20.791 24.4257L18.183 27.0337C17.451 27.7657 17.453 28.9517 18.183 29.6837L24.766 36.2677Z" fill="url(#paint1_linear_1_662)"/>
<path d="M54.6481 36.8937L52.0011 34.2437C51.2671 33.5137 50.0841 33.5137 49.3531 34.2437L48.1921 35.4037L36.9871 24.1967L39.4141 21.7687L32.6811 15.0377L30.2531 17.4657L27.1611 20.5557L24.7871 22.9297L31.5191 29.6627L33.8961 27.2897L45.0991 38.4947L44.0511 39.5437C43.3191 40.2727 43.3171 41.4597 44.0511 42.1917L46.6981 44.8397C47.4321 45.5737 48.6171 45.5737 49.3481 44.8397L54.6471 39.5427C55.3801 38.8097 55.3801 37.6257 54.6481 36.8937Z" fill="url(#paint2_linear_1_662)"/>
<path d="M35.077 44.9428C35.077 43.7438 34.105 42.7698 32.904 42.7698H15.936C14.736 42.7698 13.763 43.7438 13.763 44.9428V48.4698H9V55.8588H39.558V48.4698H35.077V44.9428Z" fill="url(#paint3_linear_1_662)"/>
<defs>
<linearGradient id="paint0_linear_1_662" x1="39.6899" y1="8.00073" x2="39.6899" y2="20.9395" gradientUnits="userSpaceOnUse">
<stop stop-color="#EF8080"/>
<stop offset="1" stop-color="#F0145A"/>
</linearGradient>
<linearGradient id="paint1_linear_1_662" x1="24.1034" y1="23.8774" x2="24.1034" y2="36.8144" gradientUnits="userSpaceOnUse">
<stop stop-color="#EF8080"/>
<stop offset="1" stop-color="#F0145A"/>
</linearGradient>
<linearGradient id="paint2_linear_1_662" x1="39.992" y1="15.0377" x2="39.992" y2="45.3902" gradientUnits="userSpaceOnUse">
<stop stop-color="#EF8080"/>
<stop offset="1" stop-color="#F0145A"/>
</linearGradient>
<linearGradient id="paint3_linear_1_662" x1="24.279" y1="42.7698" x2="24.279" y2="55.8588" gradientUnits="userSpaceOnUse">
<stop stop-color="#EF8080"/>
<stop offset="1" stop-color="#F0145A"/>
</linearGradient>
</defs>
</svg>
