<svg width="70" height="33" viewBox="0 0 70 33" fill="none" xmlns="http://www.w3.org/2000/svg">
<path d="M2.64358 0.00012207H0V19.0927H2.64358V12.0095C2.64358 10.8113 2.94164 9.86596 3.53774 9.20024C4.13384 8.53453 4.95024 8.18836 5.96102 8.18836C6.82926 8.18836 7.55495 8.50791 8.13809 9.12036C8.72124 9.74613 9.01929 10.5317 9.01929 11.477V19.106H11.6758V11.477C11.6758 9.7195 11.1964 8.33482 10.2374 7.29631C9.27846 6.2578 8.02146 5.73855 6.49233 5.73855C6.05173 5.73855 5.61114 5.79181 5.1835 5.91163C4.7429 6.03146 4.39301 6.1646 4.10792 6.31106C3.82283 6.45752 3.5507 6.61729 3.30448 6.80369C3.05826 6.99009 2.8898 7.12323 2.81205 7.20311C2.7343 7.283 2.6695 7.33625 2.64358 7.3762V0.00012207Z" fill="#F0145A"/>
<path d="M17.5854 0H14.8601V19.0767H17.5854V0Z" fill="white"/>
<path d="M33.6593 13.4897L33.7955 12.1271C33.7955 10.3012 33.196 8.77506 31.9696 7.54869C30.7433 6.32233 29.2171 5.72278 27.3912 5.72278C25.5653 5.72278 23.9847 6.37684 22.6765 7.68496C21.3684 8.99308 20.7144 10.5465 20.7144 12.3996C20.7144 14.3073 21.3957 15.9425 22.731 17.3051C24.0664 18.6677 25.6743 19.349 27.5275 19.349C28.236 19.349 28.8901 19.24 29.5442 19.0492C30.1982 18.8312 30.7433 18.6132 31.1248 18.3952C31.5336 18.1499 31.9424 17.8774 32.2967 17.5776C32.6509 17.2778 32.8962 17.0598 33.0052 16.9235C33.1142 16.7873 33.196 16.7055 33.2505 16.6238L31.4791 14.8524L31.0703 15.3702C30.7978 15.6972 30.3345 16.0242 29.6804 16.3785C28.9991 16.7328 28.2905 16.8963 27.5275 16.8963C26.4646 16.8963 25.5653 16.5693 24.8022 15.888C24.0392 15.2066 23.5759 14.4163 23.4396 13.4897H33.6593ZM27.3912 8.03924C28.3996 8.03924 29.2171 8.33902 29.8984 8.91132C30.5525 9.51087 30.9613 10.2467 31.1248 11.1733H23.5486C23.7939 10.2467 24.2299 9.51087 24.9112 8.91132C25.5653 8.33902 26.4101 8.03924 27.3912 8.03924Z" fill="white"/>
<path d="M46.3695 18.2862C46.3695 19.4853 46.0153 20.4664 45.2794 21.2294C44.5709 21.9652 43.6715 22.3468 42.5542 22.3468C42.0637 22.3468 41.5731 22.265 41.1098 22.1288C40.6465 21.9925 40.2922 21.829 39.9925 21.6382C39.6927 21.4474 39.4202 21.2567 39.1476 21.0114C38.9024 20.7661 38.7389 20.6026 38.6571 20.5209C38.5753 20.4391 38.5208 20.3574 38.4663 20.3028L36.6949 22.0743L36.9129 22.3468C37.0492 22.5375 37.2945 22.7828 37.6215 23.0553C37.9485 23.3006 38.3301 23.5731 38.7661 23.8457C39.2021 24.0909 39.7472 24.309 40.4285 24.4997C41.1098 24.6905 41.8184 24.7995 42.5542 24.7995C44.4074 24.7995 45.9335 24.1727 47.2144 22.9191C48.468 21.6382 49.0948 20.1121 49.0948 18.2589V5.9953H46.3695V7.35793L45.9062 6.94914C45.6065 6.67662 45.1432 6.40409 44.4891 6.13157C43.8351 5.85904 43.1265 5.72278 42.4179 5.72278C40.7555 5.72278 39.3384 6.34959 38.112 7.63045C36.8857 8.91132 36.2861 10.4375 36.2861 12.2634C36.2861 14.0893 36.8857 15.6154 38.112 16.8963C39.3384 18.1772 40.7555 18.804 42.4179 18.804C42.8812 18.804 43.3173 18.7495 43.7806 18.6404C44.2166 18.5042 44.5709 18.3679 44.8707 18.2317C45.1704 18.0954 45.443 17.9319 45.6882 17.7411C45.9335 17.5503 46.1243 17.4141 46.1788 17.3596L46.3695 17.1688V18.2862ZM39.0114 12.2634C39.0114 11.1188 39.3657 10.1649 40.1015 9.37461C40.8373 8.58429 41.7094 8.1755 42.6905 8.1755C43.6715 8.1755 44.5436 8.58429 45.2794 9.37461C45.988 10.1649 46.3695 11.1188 46.3695 12.2634C46.3695 13.408 45.988 14.3618 45.2794 15.1521C44.5436 15.9425 43.6715 16.3512 42.6905 16.3512C41.7094 16.3512 40.8373 15.9425 40.1015 15.1521C39.3657 14.3618 39.0114 13.408 39.0114 12.2634Z" fill="white"/>
<path d="M63.3195 19.0765V10.6282C63.3195 9.23835 62.8017 8.06649 61.7934 7.13991C60.7851 6.18607 59.4769 5.72278 57.869 5.72278C57.2422 5.72278 56.6154 5.80454 56.0159 5.96805C55.4163 6.15882 54.9258 6.34959 54.5715 6.56761C54.2172 6.78563 53.8629 7.0309 53.5359 7.33067C53.2089 7.6032 53.0181 7.79397 52.9091 7.90298C52.8273 8.01199 52.7456 8.09374 52.6911 8.1755L54.4625 9.94691L54.8168 9.48362C55.0348 9.18384 55.4163 8.91132 55.9886 8.61154C56.5609 8.31176 57.1877 8.1755 57.869 8.1755C58.6594 8.1755 59.3134 8.42077 59.8312 8.88407C60.349 9.34736 60.5943 9.94691 60.5943 10.6282L55.8251 11.4458C54.6533 11.6366 53.6994 12.0999 53.0454 12.8357C52.364 13.5715 52.0098 14.4708 52.0098 15.5337C52.0098 16.542 52.4458 17.4141 53.3179 18.1772C54.2172 18.9675 55.3073 19.349 56.6427 19.349C57.106 19.349 57.542 19.2945 57.9781 19.1582C58.4413 19.0492 58.7956 18.913 59.0954 18.7767C59.3952 18.6405 59.6677 18.4769 59.913 18.2862C60.1583 18.0954 60.3218 17.9591 60.4308 17.9046C60.5125 17.8229 60.567 17.7411 60.5943 17.7139V19.0765H63.3195ZM57.0515 16.8963C56.3429 16.8963 55.7706 16.7328 55.3618 16.4058C54.9258 16.0787 54.735 15.6972 54.735 15.2611C54.735 14.7979 54.8713 14.3891 55.1711 14.0893C55.4708 13.7895 55.8796 13.5715 56.3702 13.4897L60.5943 12.8084V13.0809C60.5943 14.3073 60.2945 15.2339 59.6677 15.9152C59.0409 16.5693 58.1688 16.8963 57.0515 16.8963Z" fill="white"/>
<path d="M69.3332 0H66.6079V19.0767H69.3332V0Z" fill="white"/>
<path d="M0 28.3299H0.852878V31.3202H2.70078V32.0152H0V28.3299Z" fill="white"/>
<path d="M8.26752 31.2255H6.5565L6.23009 32.0152H5.35615L6.99873 28.3299H7.84108L9.48893 32.0152H8.59393L8.26752 31.2255ZM7.99902 30.5779L7.41464 29.167L6.83026 30.5779H7.99902Z" fill="white"/>
<path d="M17.8731 28.3299L16.6675 32.0152H15.7515L14.9407 29.5197L14.1036 32.0152H13.1928L11.982 28.3299H12.8664L13.6982 30.9201L14.5669 28.3299H15.3566L16.199 30.9412L17.0571 28.3299H17.8731Z" fill="white"/>
<path d="M26.9457 32.0784C26.5702 32.0784 26.2297 31.9976 25.9244 31.8362C25.6225 31.6712 25.3838 31.4448 25.2084 31.157C25.0364 30.8657 24.9504 30.5376 24.9504 30.1725C24.9504 29.8075 25.0364 29.4811 25.2084 29.1933C25.3838 28.902 25.6225 28.6756 25.9244 28.5142C26.2297 28.3492 26.5719 28.2667 26.951 28.2667C27.2704 28.2667 27.5582 28.3229 27.8144 28.4352C28.0741 28.5475 28.2917 28.709 28.4672 28.9195L27.9197 29.425C27.6705 29.1372 27.3616 28.9933 26.9931 28.9933C26.7649 28.9933 26.5614 29.0441 26.3824 29.1459C26.2034 29.2442 26.063 29.3828 25.9612 29.5618C25.8629 29.7408 25.8138 29.9444 25.8138 30.1725C25.8138 30.4007 25.8629 30.6042 25.9612 30.7832C26.063 30.9622 26.2034 31.1026 26.3824 31.2044C26.5614 31.3027 26.7649 31.3518 26.9931 31.3518C27.3616 31.3518 27.6705 31.2062 27.9197 30.9149L28.4672 31.4203C28.2917 31.6344 28.0741 31.7976 27.8144 31.9099C27.5547 32.0222 27.2651 32.0784 26.9457 32.0784Z" fill="white"/>
<path d="M33.3831 32.0784C33.0005 32.0784 32.6548 31.9959 32.3459 31.8309C32.0406 31.666 31.8002 31.4396 31.6247 31.1518C31.4527 30.8605 31.3667 30.534 31.3667 30.1725C31.3667 29.811 31.4527 29.4864 31.6247 29.1986C31.8002 28.9073 32.0406 28.6791 32.3459 28.5142C32.6548 28.3492 33.0005 28.2667 33.3831 28.2667C33.7657 28.2667 34.1096 28.3492 34.415 28.5142C34.7203 28.6791 34.9607 28.9073 35.1362 29.1986C35.3117 29.4864 35.3995 29.811 35.3995 30.1725C35.3995 30.534 35.3117 30.8605 35.1362 31.1518C34.9607 31.4396 34.7203 31.666 34.415 31.8309C34.1096 31.9959 33.7657 32.0784 33.3831 32.0784ZM33.3831 31.3518C33.6007 31.3518 33.7972 31.3027 33.9727 31.2044C34.1482 31.1026 34.2851 30.9622 34.3834 30.7832C34.4852 30.6042 34.5361 30.4007 34.5361 30.1725C34.5361 29.9444 34.4852 29.7408 34.3834 29.5618C34.2851 29.3828 34.1482 29.2442 33.9727 29.1459C33.7972 29.0441 33.6007 28.9933 33.3831 28.9933C33.1655 28.9933 32.9689 29.0441 32.7934 29.1459C32.618 29.2442 32.4793 29.3828 32.3775 29.5618C32.2793 29.7408 32.2301 29.9444 32.2301 30.1725C32.2301 30.4007 32.2793 30.6042 32.3775 30.7832C32.4793 30.9622 32.618 31.1026 32.7934 31.2044C32.9689 31.3027 33.1655 31.3518 33.3831 31.3518Z" fill="white"/>
<path d="M42.0264 32.0152L42.0211 29.804L40.9366 31.6256H40.5523L39.473 29.8514V32.0152H38.6728V28.3299H39.3782L40.7576 30.62L42.1159 28.3299H42.8161L42.8266 32.0152H42.0264Z" fill="white"/>
<path d="M47.9285 28.3299C48.2549 28.3299 48.5374 28.3843 48.7761 28.4931C49.0183 28.6019 49.2043 28.7563 49.3342 28.9564C49.464 29.1565 49.529 29.3934 49.529 29.6671C49.529 29.9374 49.464 30.1743 49.3342 30.3779C49.2043 30.5779 49.0183 30.7324 48.7761 30.8412C48.5374 30.9464 48.2549 30.9991 47.9285 30.9991H47.1862V32.0152H46.3333V28.3299H47.9285ZM47.8811 30.3042C48.1373 30.3042 48.3321 30.2498 48.4655 30.141C48.5989 30.0286 48.6656 29.8707 48.6656 29.6671C48.6656 29.4601 48.5989 29.3021 48.4655 29.1933C48.3321 29.081 48.1373 29.0248 47.8811 29.0248H47.1862V30.3042H47.8811Z" fill="white"/>
<path d="M55.0121 31.2255H53.3011L52.9747 32.0152H52.1008L53.7433 28.3299H54.5857L56.2335 32.0152H55.3385L55.0121 31.2255ZM54.7436 30.5779L54.1592 29.167L53.5749 30.5779H54.7436Z" fill="white"/>
<path d="M62.6281 28.3299V32.0152H61.9279L60.0906 29.7777V32.0152H59.2482V28.3299H59.9537L61.7858 30.5674V28.3299H62.6281Z" fill="white"/>
<path d="M67.9013 30.7095V32.0152H67.0485V30.699L65.6217 28.3299H66.5273L67.5117 29.9672L68.4963 28.3299H69.3333L67.9013 30.7095Z" fill="white"/>
</svg>
